<svg width="24" height="24" viewBox="0 0 24 24" fill="none" xmlns="http://www.w3.org/2000/svg">
<path d="M12 3C7.03711 3 3 7.03711 3 12C3 16.9629 7.03711 21 12 21C16.9629 21 21 16.9629 21 12C21 7.03711 16.9629 3 12 3ZM12 4.5C16.1514 4.5 19.5 7.84863 19.5 12C19.5 16.1514 16.1514 19.5 12 19.5C7.84863 19.5 4.5 16.1514 4.5 12C4.5 7.84863 7.84863 4.5 12 4.5ZM12 7.5C11.5858 7.5 11.25 7.83579 11.25 8.25V12.75C11.25 13.1642 11.5858 13.5 12 13.5V13.5C12.4142 13.5 12.75 13.1642 12.75 12.75V8.25C12.75 7.83579 12.4142 7.5 12 7.5V7.5ZM12 15C11.5858 15 11.25 15.3358 11.25 15.75V15.75C11.25 16.1642 11.5858 16.5 12 16.5V16.5C12.4142 16.5 12.75 16.1642 12.75 15.75V15.75C12.75 15.3358 12.4142 15 12 15V15Z" fill="white"/>
</svg>
